<?xml version="1.0" encoding="UTF-8"?>
<svg width="30px" height="35px" viewBox="0 0 30 35" version="1.1" xmlns="http://www.w3.org/2000/svg" xmlns:xlink="http://www.w3.org/1999/xlink">
    <!-- Generator: Sketch 48 (47235) - http://www.bohemiancoding.com/sketch -->
    <title>#1</title>
    <desc>Created with Sketch.</desc>
    <defs>
        <polygon id="path-1" points="15 27 12.653483 29.8153251 11.2917961 26.4126782 8.1901425 28.3650979 7.94657697 24.7082039 4.39339828 25.6066017 5.29179607 22.053423 1.63490214 21.8098575 3.5873218 18.7082039 0.184674891 17.346517 3 15 0.184674891 12.653483 3.5873218 11.2917961 1.63490214 8.1901425 5.29179607 7.94657697 4.39339828 4.39339828 7.94657697 5.29179607 8.1901425 1.63490214 11.2917961 3.5873218 12.653483 0.184674891 15 3 17.346517 0.184674891 18.7082039 3.5873218 21.8098575 1.63490214 22.053423 5.29179607 25.6066017 4.39339828 24.7082039 7.94657697 28.3650979 8.1901425 26.4126782 11.2917961 29.8153251 12.653483 27 15 29.8153251 17.346517 26.4126782 18.7082039 28.3650979 21.8098575 24.7082039 22.053423 25.6066017 25.6066017 22.053423 24.7082039 21.8098575 28.3650979 18.7082039 26.4126782 17.346517 29.8153251"></polygon>
        <filter x="-16.9%" y="-13.5%" width="133.7%" height="133.7%" filterUnits="objectBoundingBox" id="filter-2">
            <feOffset dx="0" dy="1" in="SourceAlpha" result="shadowOffsetOuter1"></feOffset>
            <feGaussianBlur stdDeviation="1.5" in="shadowOffsetOuter1" result="shadowBlurOuter1"></feGaussianBlur>
            <feColorMatrix values="0 0 0 0 0   0 0 0 0 0   0 0 0 0 0  0 0 0 0.3 0" type="matrix" in="shadowBlurOuter1"></feColorMatrix>
        </filter>
    </defs>
    <g id="#1" stroke="none" stroke-width="1" fill="none" fill-rule="evenodd" transform="translate(-171.000000, -228.000000)">
        <g id="Group-7" transform="translate(171.000000, 228.000000)">
            <g id="Badge">
                <polygon id="Rectangle-94" fill="#66B500" points="10 16 20 16 20 35 15 31 10 35"></polygon>
                <g id="Star-2">
                    <use fill="black" fill-opacity="1" filter="url(#filter-2)" xlink:href="#path-1"></use>
                    <use fill="#FFFFFF" fill-rule="evenodd" xlink:href="#path-1"></use>
                </g>
                <circle id="Oval-16" fill="#66B500" cx="15" cy="15" r="9"></circle>
                <g id="Icon/16x16/Like/Active" transform="translate(11.000000, 10.000000)" fill="#FFFFFF" fill-rule="nonzero">
                    <path d="M7.51304474,7.51590798 C7.28082071,8.38705373 6.89102528,8.88298195 6.34365845,9.00369263 C4.66891479,9.1191508 3.28245271,8.79592473 2.1842722,8.03401442 C2.1699983,8.02411128 1.60866269,8.01949744 0.500265387,8.02017288 L0.500265329,8.02007855 C0.224175106,8.02024679 0.000223367557,7.79656784 5.51205948e-05,7.52047761 C5.50587136e-05,7.52037607 5.5027773e-05,7.52027452 5.5027773e-05,7.52017298 L-3.92226175e-05,4.87697163 C-3.92226175e-05,4.6007772 0.2238606,4.37687738 0.500055028,4.37687738 C0.502690799,4.37687738 0.505326529,4.37689821 0.50796197,4.37693989 C0.911863754,4.38332674 1.18526773,4.38652017 1.3281739,4.38652017 C1.8056159,4.38652017 3.93258494,2.16429906 4.73252556,0.389254321 C4.73252556,0.389254321 4.73252556,0.389254321 4.73252556,0.389254321 L4.73252556,0.389254321 C4.88238989,0.0567097891 5.27345954,-0.0913817788 5.60600407,0.0584825462 C5.90580367,0.193590062 6.06053863,0.528668727 5.96897741,0.844501573 C5.83030424,1.32278674 5.69060061,1.72529444 5.54985144,2.05202029 C5.10178803,3.09212511 5.04261131,3.16259502 5.23371968,3.46658666 C5.30730435,3.58294976 5.50414009,3.66558008 5.64601556,3.66558008 L7.08960475,3.84346076 C7.62152852,3.90902251 8.00720346,4.38226247 7.96407447,4.91647322 C7.8939881,5.78458768 7.74364485,6.65106594 7.51304474,7.51590798 Z" id="Shape"></path>
                </g>
            </g>
        </g>
    </g>
</svg>